<?xml version="1.0" encoding="utf-8"?>
<!-- Generator: Adobe Illustrator 23.0.2, SVG Export Plug-In . SVG Version: 6.00 Build 0)  -->
<svg version="1.1" id="Layer_1" xmlns="http://www.w3.org/2000/svg" xmlns:xlink="http://www.w3.org/1999/xlink" x="0px" y="0px"
	 viewBox="0 0 645.5 523.1" style="enable-background:new 0 0 645.5 523.1;" xml:space="preserve">
<style type="text/css">
	.st0{fill:#636E72;}
</style>
<path class="st0" d="M116.4,27.8c9.1-4.4,22.9-11,41.1-12.9c7.5-0.8,26.8-1.9,61,12c18.1,7.4,35.5,19,69.5,42
	c43.2,29.2,64.8,43.8,73.5,53c5.2,5.5,14.8,16.3,31,25c6.9,3.7,13.6,6.1,27,11c16.7,6.1,25,9.1,34,11c5.3,1.1,14.6,2.7,48,0
	c21.1-1.7,39.3-3.2,64-8c18.5-3.6,24.7-6,51-11c12.3-2.3,22.4-4,29-5v222c-19.3,21.8-37.7,35.5-51,44c-8,5.1-17.3,10.1-36,20
	c-19.3,10.3-29.4,15.7-44,22c-6.1,2.7-23,9.9-46,17c-19.3,6-33.7,9.1-52,13c-13.5,2.9-27.4,5.3-55,10c-34.1,5.8-41.8,6.6-50,7
	c-5.6,0.3-5.4,0.1-35,0c-23.8-0.1-35.6-0.1-42,0c-34.7,0.6-38.5,2.4-54,0c-3.8-0.6-15.9-2.6-31-8c-2.6-0.9-14.2-5.1-30-14
	c-10.4-5.8-24.5-13.7-39-27c-21.1-19.3-31.7-39.6-37-50c-10.4-20.4-14-36.4-20-64c-7.4-33.9-12.6-58.2-12-92c0.7-39,8.9-68.2,14-86
	c2.7-9.4,10.7-36,27-67c11.9-22.7,19.6-31.3,23-35C91.2,40.1,108,31.8,116.4,27.8z"/>
</svg>
