<?xml version="1.0" encoding="utf-8"?>
<!-- Generator: Adobe Illustrator 23.0.2, SVG Export Plug-In . SVG Version: 6.00 Build 0)  -->
<svg version="1.1" id="Layer_1" xmlns="http://www.w3.org/2000/svg" xmlns:xlink="http://www.w3.org/1999/xlink" x="0px" y="0px"
	 viewBox="0 0 647.77 503.99" style="enable-background:new 0 0 647.77 503.99;" xml:space="preserve">
<style type="text/css">
	.st0{fill:#636E72;}
</style>
<path class="st0" d="M125.77,30.02c12.43-4.78,26.97-10.38,47-12c0.96-0.08,0.28-0.01,36,0c25.11,0.01,37.66,0.01,38,0
	c11.6-0.45,14.03-0.98,20,0c10.5,1.72,12.84,4.98,24,6c2.13,0.19,1.83,0.06,16,0c7.08-0.03,14.7-0.02,17,0
	c12.32,0.13,19.76,2.31,38.5,6c15.74,3.1,10.69,1.6,34.5,6c22.16,4.1,33.46,6.19,49,10c4.15,1.02,19.3,4.78,39,11
	c16.85,5.32,28.75,9.82,45,16c23.45,8.92,35.18,13.37,48,20c7.83,4.05,19.37,10.06,33,20c16.35,11.92,28.49,24.19,37,34v239
	c-19.67,16.75-38.8,29.38-56,39c-5.7,3.18-19.13,9.46-46,22c-39.4,18.39-49.84,22.44-63,26c-1.5,0.41-12.33,2.6-34,7
	c-35.25,7.15-45.32,8.9-52,10c-15.18,2.51-12.19,1.58-34.5,5c-37.65,5.77-38.78,7.27-53.5,8c-0.34,0.02-0.07,0-37,0
	c-18.62,0-27.92,0-28,0c-20.95,0.54-24.25,1.89-34,0c-9.01-1.75-8.51-3.35-21-6c-12.04-2.55-14.95-1.58-23-4
	c-10.23-3.08-17.17-8.15-21-11c-4.97-3.7-15.23-12.34-25-32c-7.46-15.01-6.63-20.36-18-67c-5.92-24.28-7.82-29.71-10-35
	c-4.95-12.01-10.34-20.82-22-38c-26.13-38.49-27.09-35.49-35-49.5c-5.74-10.17-18.29-32.95-21-64.5c-2.39-27.78,3.99-49.17,9-66
	c3.54-11.87,7.12-23.57,16-37c9.79-14.8,21.16-24.38,29-30C90.08,45.56,111.04,35.68,125.77,30.02z"/>
</svg>
