<?xml version="1.0" encoding="utf-8"?>
<!-- Generator: Adobe Illustrator 23.0.2, SVG Export Plug-In . SVG Version: 6.00 Build 0)  -->
<svg version="1.1" id="Layer_1" xmlns="http://www.w3.org/2000/svg" xmlns:xlink="http://www.w3.org/1999/xlink" x="0px" y="0px"
	 viewBox="0 0 641.89 500.62" style="enable-background:new 0 0 641.89 500.62;" xml:space="preserve">
<style type="text/css">
	.st0{fill:#636E72;}
</style>
<path class="st0" d="M383.06,8.16c8.23,2.78,16.17,9.73,32.06,23.62c4.19,3.66,8.71,7.64,14.34,13.5
	c8.12,8.45,13.64,15.72,20.25,24.47c7.39,9.79,7.24,10.41,13.5,18.56c1.61,2.09,7.3,9.44,17.72,21.09
	c16.66,18.64,19.59,19.39,32.06,33.75c10.26,11.81,7.68,10.61,19.41,24.47c10.29,12.16,13.38,14.39,31.22,33.75
	c4.21,4.56,2.16,2.41,22.78,25.31c22.24,24.7,24.72,27.33,32.06,35.73c5.38,6.15,13.54,15.61,23.42,27.55V493.3h-15.83
	c-4.6,0.14-9.38,0.15-14.34,0c-13.97-0.42-26.7-2.04-37.97-4.22l-32.91-7.59c-21.77-5.89-40.34-11.08-54.84-15.19
	c-22.03-6.24-39.38-11.33-43.87-12.66c-29.04-8.53-29.8-9.07-45.56-13.5c-23.95-6.73-35.92-10.09-49.78-12.66
	c-24.59-4.56-44.19-5.6-54-5.91c-9.64-0.31-17.1-0.14-22.78,0c-7.09,0.17-23.94,0.73-46.41,3.38c-14.21,1.67-23.88,3.37-43.03,6.75
	c-27.46,4.84-27.58,5.69-45.56,8.44c-23.96,3.66-37.77,4.3-48.94,4.22c-17.83-0.14-25.38-2.09-29.53-3.38
	c-6.97-2.16-18.26-5.8-27.84-16.03c-7.62-8.14-10.49-16.51-13.5-25.31c-3.49-10.18-5.48-21.02-5.91-34.59
	c-0.77-24.53,4.05-43.31,8.44-59.91c5.54-20.95,10.64-40.22,24.47-61.59c7.6-11.75,8.24-9.29,24.47-32.06
	c12.43-17.43,15.44-23.62,26.16-36.28c2.08-2.46,10.05-11.77,21.94-22.78c16.88-15.64,19.69-14.35,39.66-32.06
	c10.66-9.46,12.88-12.5,23.62-21.09c3.61-2.88,3.98-3.04,20.25-15.19c17.64-13.17,18.46-13.93,22.78-16.88
	c5.75-3.92,14.27-9.38,25.31-15.19c17.44-9.28,34.87-18.56,52.31-27.84c5.54-2.79,12.94-6.15,21.94-9.28
	c5.81-2.02,14.49-4.99,25.31-6.75C360.07,5.86,371.01,4.09,383.06,8.16z"/>
</svg>
