<?xml version="1.0" encoding="utf-8"?>
<!-- Generator: Adobe Illustrator 16.0.0, SVG Export Plug-In . SVG Version: 6.00 Build 0)  -->
<!DOCTYPE svg PUBLIC "-//W3C//DTD SVG 1.1//EN" "http://www.w3.org/Graphics/SVG/1.1/DTD/svg11.dtd">
<svg version="1.1" id="Layer_1" xmlns="http://www.w3.org/2000/svg" xmlns:xlink="http://www.w3.org/1999/xlink" x="0px" y="0px"
	 width="1439px" height="1444px" viewBox="-19 -21.5 1439 1444" enable-background="new -19 -21.5 1439 1444" xml:space="preserve">
<path fill="#FFFFFF" d="M1250.016,1102.222c83.19-112.489,132.497-251.362,132.497-401.748
	c0-374.206-306.046-678.974-681.774-678.974C324.708,21.5,19,326.268,19,700.474c0,374.505,305.709,678.974,681.738,678.974
	c147.77,0,284.808-47.014,396.63-127.103l170.885,170.155L1420,1271.555L1250.016,1102.222z M1095.792,948.661l-251.9-250.878
	l-151.56,151.17l250.624,249.495c-70.845,42.828-153.736,67.344-242.144,67.344c-257.789,0-467.288-208.61-467.288-465.28
	c0-256.41,209.497-465.32,467.288-465.32c257.341,0,467.139,208.873,467.139,465.32
	C1167.951,791.549,1141.421,876.757,1095.792,948.661L1095.792,948.661z"/>
<path fill="#FFFFFF" d="M1250.016,1102.222c83.19-112.489,132.497-251.362,132.497-401.748
	c0-374.206-306.046-678.974-681.774-678.974C324.708,21.5,19,326.268,19,700.474c0,374.505,305.709,678.974,681.738,678.974
	c147.77,0,284.808-47.014,396.63-127.103l170.885,170.155L1420,1271.555L1250.016,1102.222z M1095.792,948.661l-251.9-250.878
	l-151.56,151.17l250.624,249.495c-70.845,42.828-153.736,67.344-242.144,67.344c-257.789,0-467.288-208.61-467.288-465.28
	c0-256.41,209.497-465.32,467.288-465.32c257.341,0,467.139,208.873,467.139,465.32
	C1167.951,791.549,1141.421,876.757,1095.792,948.661L1095.792,948.661z"/>
</svg>
